<svg xmlns="http://www.w3.org/2000/svg" width="30" height="30" viewBox="0 0 24 24" fill="none" stroke="currentColor" stroke-width="1.5" stroke-linecap="round" stroke-linejoin="round">
  <!-- Left page of open book -->
  <path d="M12 6c0-2.76-2.24-5-5-5S2 3.24 2 6v14c0-2.76 2.24-5 5-5s5 2.24 5 5" fill="url(#leftGradient)"/>
  
  <!-- Right page of open book -->
  <path d="M12 6c0-2.76 2.24-5 5-5s5 2.24 5 5v14c0-2.76-2.24-5-5-5s-5 2.24-5 5" fill="url(#rightGradient)"/>
  
  <!-- Dynamic page lines -->
  <path d="M7 15.5c1-0.5 2-0.75 3-0.75" stroke="currentColor" stroke-width="1"/>
  <path d="M7 12.5c1-0.5 2-0.75 3-0.75" stroke="currentColor" stroke-width="1"/>
  <path d="M14 15.5c1-0.5 2-0.75 3-0.75" stroke="currentColor" stroke-width="1"/>
  <path d="M14 12.5c1-0.5 2-0.75 3-0.75" stroke="currentColor" stroke-width="1"/>
  
  <!-- Spine detail -->
  <line x1="12" y1="6" x2="12" y2="20" stroke="currentColor"/>
  
  <!-- Gradients -->
  <defs>
    <linearGradient id="leftGradient" x1="0%" y1="0%" x2="100%" y2="100%">
      <stop offset="0%" style="stop-color:var(--bs-primary);stop-opacity:0.1"/>
      <stop offset="100%" style="stop-color:var(--bs-info);stop-opacity:0.2"/>
    </linearGradient>
    <linearGradient id="rightGradient" x1="100%" y1="0%" x2="0%" y2="100%">
      <stop offset="0%" style="stop-color:var(--bs-info);stop-opacity:0.1"/>
      <stop offset="100%" style="stop-color:var(--bs-primary);stop-opacity:0.2"/>
    </linearGradient>
  </defs>
</svg>
